<svg width="10" height="6" viewBox="0 0 10 6" fill="none" xmlns="http://www.w3.org/2000/svg">
<path id="Vector" d="M9.8723 1.20687L5.32174 5.37782C5.2795 5.41656 5.22934 5.44728 5.17414 5.46825C5.11894 5.48921 5.05977 5.5 5.00002 5.5C4.94027 5.5 4.8811 5.48921 4.8259 5.46825C4.77069 5.44728 4.72054 5.41656 4.67829 5.37782L0.127739 1.20687C0.0448474 1.1282 -0.0010196 1.02284 1.72023e-05 0.91348C0.00105401 0.804119 0.0489116 0.699506 0.133283 0.622173C0.217654 0.54484 0.331787 0.500974 0.451101 0.500024C0.570415 0.499073 0.685363 0.541114 0.771188 0.617092L5 4.49315L9.22881 0.617084C9.31464 0.541106 9.42959 0.499065 9.5489 0.500016C9.66821 0.500966 9.78235 0.544831 9.86672 0.622164C9.95109 0.699497 9.99895 0.80411 9.99998 0.913471C10.001 1.02283 9.95519 1.1282 9.8723 1.20687Z" fill="#1F383E" style="fill:#1F383E;fill:color(display-p3 0.1202 0.2205 0.2418);fill-opacity:1;"/>
</svg>
