<svg width="15" height="16" viewBox="0 0 15 16" fill="none" xmlns="http://www.w3.org/2000/svg">
<path id="Search" fill-rule="evenodd" clip-rule="evenodd" d="M12.2222 7.16667C12.2222 10.2349 9.73491 12.7222 6.66667 12.7222C3.59842 12.7222 1.11111 10.2349 1.11111 7.16667C1.11111 4.09842 3.59842 1.61111 6.66667 1.61111C9.73491 1.61111 12.2222 4.09842 12.2222 7.16667ZM10.9716 12.2573C9.81009 13.2405 8.30761 13.8333 6.66667 13.8333C2.98477 13.8333 0 10.8486 0 7.16667C0 3.48477 2.98477 0.5 6.66667 0.5C10.3486 0.5 13.3333 3.48477 13.3333 7.16667C13.3333 8.80761 12.7405 10.3101 11.7573 11.4716L14.8373 14.5516C15.0542 14.7686 15.0542 15.1203 14.8373 15.3373C14.6203 15.5542 14.2686 15.5542 14.0516 15.3373L10.9716 12.2573Z" fill="#1F383E" style="fill:#1F383E;fill:color(display-p3 0.1202 0.2205 0.2418);fill-opacity:1;"/>
</svg>
