<svg width="13" height="16" viewBox="0 0 13 16" fill="none" xmlns="http://www.w3.org/2000/svg">
<path id="User" fill-rule="evenodd" clip-rule="evenodd" d="M10.0841 4C10.0841 5.93 8.47799 7.5 6.50362 7.5C4.52925 7.5 2.92316 5.93 2.92316 4C2.92316 2.07 4.52925 0.5 6.50362 0.5C8.47799 0.5 10.0841 2.07 10.0841 4ZM9.0611 4C9.0611 2.62 7.91535 1.5 6.50362 1.5C5.0919 1.5 3.94615 2.62 3.94615 4C3.94615 5.38 5.0919 6.5 6.50362 6.5C7.91535 6.5 9.0611 5.38 9.0611 4ZM6.50366 8.50006C9.54706 8.50006 12.2017 10.5101 12.9485 13.3951C13.0764 13.9001 12.9638 14.4251 12.6365 14.8401C12.304 15.2601 11.7976 15.5001 11.2554 15.5001H1.74676C1.20458 15.5001 0.698197 15.2601 0.365726 14.8401C0.0383693 14.4251 -0.0792745 13.9001 0.0537141 13.3951C0.805611 10.5151 3.46027 8.50006 6.50366 8.50006ZM11.2554 14.5001C11.4805 14.5001 11.6902 14.4001 11.8283 14.2251H11.8232C11.9562 14.0551 12.0022 13.8401 11.9511 13.6401C11.3168 11.2001 9.07648 9.49506 6.49855 9.49506C3.92061 9.49506 1.68027 11.2001 1.04601 13.6401C0.994864 13.8451 1.0409 14.0551 1.17389 14.2251C1.31199 14.4001 1.5217 14.5001 1.74676 14.5001H11.2554Z" fill="#1F383E" style="fill:#1F383E;fill:color(display-p3 0.1202 0.2205 0.2418);fill-opacity:1;"/>
</svg>
